<svg xmlns="http://www.w3.org/2000/svg" width="1536" height="1024" version="1.1">
  <path d="M790.563 219.688c6.23 4.066 9.38 9.752 12.632 16.226l1.18 2.314c1.256 2.463 2.503 4.93 3.75 7.397l3.855 7.574 2.528 4.966a909 909 0 0 0 10.813 20.605c3.297 6.16 3.297 6.16 3.679 9.23-.921 1.672-.921 1.672-2.395 3.32l-1.632 1.858-1.785 1.947-1.797 2.013C816.452 302.625 811.303 307.865 806 313q-2.504 2.495-5 5l-2.895 2.895-1.455 1.455L790 329c-2.154-2.72-3.773-5.365-5.227-8.512l-1.187-2.545-1.211-2.63q-1.204-2.601-2.414-5.2l-1.069-2.319c-.76-1.769-.76-1.769-1.892-2.794l-1.398 3.05c-5.17 11.186-10.76 22.102-16.602 32.95l-1.34 2.511a1194 1194 0 0 1-3.972 7.364l-1.201 2.252c-4.048 7.365-9.477 11.79-16.3 16.498l-2.285 1.593c-2.297 1.6-4.6 3.19-6.902 4.782l-3.723 2.594c-8.001 5.558-16.089 10.988-24.187 16.404l-3.485 2.335a600 600 0 0 1-21.724 13.906q-3.485 2.128-6.924 4.327l-3.144 1.997-3.231 2.066L658 421l-2-1 2.203-4.223 1.453-2.785 3.235-6.197q4.09-7.829 8.156-15.67a1457 1457 0 0 1 16.383-30.715c4.365-7.97 8.549-16.029 12.719-24.102a884 884 0 0 1 10.726-20.058c4.686-8.51 9.185-17.11 13.625-25.75 4.896-9.528 9.884-18.993 15.073-28.366a453 453 0 0 0 7.779-14.732l1.718-3.387a641 641 0 0 0 3.216-6.455c3.928-7.76 8.486-14.824 15.902-19.623 7.883-1.938 15.164-2.388 22.375 1.75" fill="#0471b1"></path>
  <path d="M854 331c2.7 3.244 4.958 6.456 6.996 10.148l1.673 3.012 1.769 3.215q1.88 3.39 3.761 6.777l1.92 3.465c2.848 5.123 5.74 10.222 8.631 15.32 4.28 7.56 8.528 15.135 12.737 22.733q3.79 6.838 7.638 13.642c4.57 8.098 9.052 16.244 13.54 24.388q7.424 13.476 14.898 26.925l1.86 3.347a11492 11492 0 0 0 9.358 16.805c6.456 11.579 12.86 23.183 19.157 34.848l1.847 3.416 1.68 3.123 1.488 2.764C964 527 964 527 964 528q-9.042.149-18.085.22-3.067.03-6.135.082c-19.133.318-33.748-1.707-48.257-15.396-4.542-4.63-7.355-9.408-10.148-15.218q-1.538-3.069-3.082-6.133l-1.616-3.24c-2.894-5.722-5.947-11.358-8.99-17.002l-4.775-8.89a5091 5091 0 0 1-6.85-12.794c-8.165-15.298-8.165-15.298-16.5-30.504l-1.184-2.138a322 322 0 0 0-5.8-10.014l-1.158-1.94a537 537 0 0 0-3.12-5.115c-1.545-3.467-1.355-4.341-.3-7.918a152 152 0 0 1 3.64-6.805c3.976-7.232 7.245-14.623 10.298-22.284a812 812 0 0 1 2.48-6.126c2.988-7.382 5.621-14.744 7.83-22.402C853 332 853 332 854 331" fill="#0b4f86"></path>
  <path d="M734 613c9.77 6.687 14.967 15.762 18.59 26.797 2.746 14.753-.346 29.777-8.59 42.203-5.637 7.994-17.514 14.104-27 16-3.393.244-6.787.231-10.187.25l-2.752.063c-9.648.055-15.667-2.517-24.061-7.313v49h-27l-1-131h25l3 9 2.688-2.187C697.41 605.608 718.264 603.863 734 613" fill="#10335f"></path>
  <path d="M853 285c1.175 3.48.819 5.897.031 9.453l-.72 3.28-.811 3.517-.83 3.645c-13.09 56.284-41.023 115.053-83.197 155.632-1.71 1.66-1.71 1.66-3.91 4.473-2.64 3.089-5.446 5.594-8.532 8.219-1.9 1.666-3.653 3.4-5.406 5.219-4.223 4.27-8.858 7.918-13.625 11.562l-1.609 1.234C715.795 505.424 695.847 516.527 675 527l-1.74 1.068c-3.095 1.276-5.704 1.171-9.048 1.16h-2.041c-2.219-.001-4.437-.017-6.655-.033l-4.624-.008c-4.051-.008-8.102-.028-12.152-.05-4.136-.02-8.272-.03-12.408-.04Q614.167 529.065 602 529c1.198-3.042 2.419-5.913 4.059-8.742l1.17-2.043q1.202-2.079 2.406-4.156l1.174-2.051 1.173-2.023c1.215-2.218 1.215-2.218 2.143-5.801 2.138-3.63 2.707-3.82 6.566-4.97q2.928-.677 5.871-1.276 3.159-.736 6.313-1.485l3.16-.732C680.965 484.799 723.57 459.329 758 429l2.383-2.047C772.882 416.022 784.875 404.173 795 391l3.813-4.625c8.9-11.175 16.991-23.04 24.187-35.375l1.44-2.444C836.432 328.145 846.013 307.63 853 285" fill="#6da23d"></path>
  <path d="M473 569h27l3.008 7.336a41222 41222 0 0 0 19.93 48.539l.836 2.033a8000 8000 0 0 0 11.858 28.65q2.794 6.728 5.596 13.451l2.057 4.948.914 2.187c2.73 6.576 5.242 13.201 7.801 19.856h-33l-4.812-12.375-1.5-3.837-1.208-3.124-1.221-3.142c-1.59-4.45-2.901-8.996-4.259-13.522l-50 1-14 35h-21c1.887-6.29 3.725-12.129 6.3-18.094l.948-2.231q1.005-2.363 2.015-4.723c1.814-4.237 3.61-8.482 5.409-12.725l1.11-2.614c3.486-8.222 6.893-16.475 10.28-24.738l3.403-8.285.857-2.086a5821 5821 0 0 1 9.81-23.68l1.958-4.707q1.364-3.28 2.73-6.558l.797-1.918c2.053-4.918 4.217-9.767 6.383-14.641" fill="#103461"></path>
  <path d="M985.586 618.953c8.207 7.736 13.244 17.357 13.715 28.668q.021 2.409.011 4.817l.05 2.408c.008 10.15-3.934 21.024-10.776 28.654-7.15 6.762-15.31 10.49-24.586 13.5l-2.3.75c-13.49 3.658-30.188 1.894-42.575-4.437-10.615-6.42-18.064-14.413-22-26.313-3.186-13.332-1.997-27.059 4.438-39.125C907.385 618.74 916.127 613.849 926 610l3.188-1.25c19.342-5.158 40.4-1.88 56.398 10.203" fill="#113561"></path>
  <path d="M849 282c0 3.858-1.583 6.387-3.367 9.695l-1.062 2.001a1437 1437 0 0 1-3.446 6.429l-2.361 4.412C833.415 314.5 827.976 324.395 822 334l-1.137 1.83c-10.729 17.148-22.297 33.5-36.16 48.256a250 250 0 0 0-6.035 6.762c-3.7 4.247-7.612 8.244-11.606 12.214l-2.013 2.026c-4.518 4.509-9.202 8.76-14.049 12.912l-2.809 2.45c-13.104 11.157-27.34 20.579-42.136 29.333a682 682 0 0 0-5.492 3.295c-17.431 10.308-35.915 18.19-54.955 24.988-2.31.827-4.613 1.674-6.913 2.532-5.355 1.975-10.59 3.786-16.195 4.879-2.647.554-5.248 1.239-7.862 1.932-9.777 2.568-19.632 4.196-29.638 5.591l-3.937.578c-4.686.574-9.35.532-14.063.485l-2.637-.014q-3.18-.02-6.363-.049c2.733-2.733 6-3.87 9.5-5.375q2.456-1.076 4.91-2.156l2.708-1.192c15.337-6.797 30.5-13.85 45.249-21.852 3.07-1.662 6.15-3.305 9.23-4.948l6.966-3.727 3.28-1.753c5.749-3.092 11.402-6.288 16.979-9.68 2.795-1.69 5.64-3.286 8.49-4.88 28.53-16.182 55.806-34.774 81.696-54.89 1.877-1.458 3.76-2.907 5.644-4.356 11.457-8.851 22.328-18.374 33.043-28.105a409 409 0 0 1 4.61-4.11c9.873-8.707 19.547-17.973 28.043-28.046 2.068-2.415 4.238-4.726 6.402-7.055 5.313-5.822 10.138-11.97 14.953-18.205 3.05-3.928 6.18-7.794 9.297-11.67" fill="#085d98"></path>
  <path d="M1100.25 611.75c6.735 5.51 10.077 10.647 11.75 19.25.383 5.067.352 10.118.293 15.195q-.009 2.164-.013 4.33c-.011 3.764-.04 7.529-.074 11.293-.036 4.535-.05 9.07-.067 13.605-.03 6.859-.087 13.718-.139 20.577h-28l-.148-12.66q-.068-5.018-.14-10.035-.076-5.284-.134-10.57c-.044-4.048-.104-8.097-.164-12.145l-.035-3.801c.066-9.795.066-9.795-3.691-18.601-4.594-3.233-9.173-3.833-14.688-3.188-5.427 1.3-10.36 3.524-15.273 6.133C1048 632 1048 632 1045 633v63h-27l-1-87h25l2 11 4.813-2.687c16.523-8.95 33.68-15.125 51.437-5.563" fill="#10335f"></path>
  <path d="m619 609 2.773.508c2.094.416 4.165.942 6.227 1.492 1.538 3.075.366 5.347-.437 8.625l-.872 3.602L626 626c-4.033-.615-7.878-1.495-11.812-2.562-5.442-1.265-10.625-1.793-16.188-1.875l-2.175-.067c-3.633.014-5.678.411-8.77 2.371-2.362 2.452-2.882 3.763-3.055 7.133.687 3.085.687 3.085 2.984 4.324 7.614 3.753 15.38 6.822 23.365 9.696 7.585 2.778 15.454 5.709 20.651 12.168l1.688 2.042c3.795 5.118 2.774 11.678 2.312 17.77-1.676 6.714-6.437 11.173-12 15-16.441 9.416-36.86 8.536-55 5a114 114 0 0 1-12-4c1.068-5.114 2.231-10.072 4-15l3.563 1.25A652 652 0 0 0 569 681l3.41 1.09c10.031 2.964 21.574 5.786 31.465.972 2.88-1.75 2.88-1.75 4.125-3.062.504-4.066.504-4.066 0-8-3.378-3.09-6.538-4.824-10.824-6.367l-3.37-1.246q-3.464-1.251-6.929-2.5c-10.56-3.908-20.436-8.235-26.877-17.887-2.76-6.84-2.874-13.239-.027-20.02 3.811-7.347 9.36-11.148 17.027-13.98 14.018-4.22 27.752-3.744 42-1" fill="#133661"></path>
  <path d="M889 608v23l-10-2c-9.126-.684-17.52 1-24.696 7.123-2.968 4.272-2.145 10.056-2.109 15.053l-.041 3.88a801 801 0 0 0-.03 10.174c.001 3.466-.031 6.931-.062 10.397-.056 6.792-.058 13.58-.062 20.373h-27l-1-87h25c1.457 5.83 2.237 9.309 2 15h2l.793-1.777c3.812-7.02 10.796-11.692 18.207-14.223 6.133-1.606 10.074-.63 17 0" fill="#0f335f"></path>
  <path d="M961 623c7.75 7.96 9.517 18.812 9.375 29.5l.035 2.645c-.041 9.333-2.277 18.595-8.41 25.855-4.343 4.24-8.491 5.36-14.5 5.625-5.953-.241-10.135-1.523-14.5-5.625-9.454-10.664-8.97-24.984-8.232-38.458.712-7.801 3.582-14.16 9.232-19.542 8.928-5.284 18.027-5.493 27 0" fill="#fbfbfc"></path>
  <path d="M772 609h28v87h-28z" fill="#103461"></path>
  <path d="M713.77 626.332c5.447 4.074 8.19 9.277 9.605 15.856.256 1.931.461 3.87.625 5.812l.285 3.32c.418 9.583-.946 19.496-7.293 27.078-6.318 5.712-11.916 6.036-20.246 5.887-4.744-.36-7.953-1.48-11.746-4.285l-2.559-1.437c-3.715-3.901-3.214-7.63-3.21-12.84l-.037-3.041q-.024-3.181-.01-6.362c.003-3.244-.062-6.481-.131-9.724q-.012-3.093-.01-6.186l-.078-2.933c.113-6.565.113-6.565 2.764-9.186 9.862-6.313 21.676-7.841 32.04-1.959" fill="#f9fafb"></path>
  <path d="M854 200c1.649 2.473 2.665 4.436 3.727 7.16l.937 2.404.961 2.499.984 2.51C863 220.744 863 220.744 863 223h26c-5.625 5.625-5.625 5.625-8.55 7.676l-1.866 1.318-1.896 1.319-1.956 1.376Q872.37 236.35 870 238c.325 7.203 1.927 13.497 4.258 20.313C875 261 875 261 874 263l-1.652-1.32A517 517 0 0 0 865 256l-2.426-1.871-2.324-1.691-2.11-1.567c-2.127-1.106-2.127-1.106-4.425-.34-3.626 1.962-7.005 4.202-10.403 6.531-7.13 4.847-7.13 4.847-9.312 5.938 2.042-8.446 4.074-16.807 7-25l-2.152-.719c-3.323-1.495-5.646-3.413-8.41-5.781-3.038-2.595-5.757-4.906-9.438-6.5v-2h26l2-9c.83-2.536 1.701-5.06 2.625-7.562l1.352-3.692z" fill="#70a442"></path>
  <path d="M480 596h2q3.855 9.954 7.69 19.916 1.308 3.39 2.62 6.777a4401 4401 0 0 1 3.752 9.733l1.194 3.068 1.092 2.851.969 2.51C500 643 500 643 500 646h-39c1.975-6.582 4-12.873 6.54-19.219l.988-2.498c1.028-2.596 2.063-5.19 3.097-7.783l2.102-5.305C478.81 598.378 478.81 598.378 480 596" fill="#f8f9fa"></path>
  <path d="M796.625 564.25c3.474 2.56 5.015 4.67 6.375 8.75.372 4.544.412 7.07-1.437 11.25-4.245 4.555-8.992 6.434-15.125 7.188-5.586-.711-9.883-1.843-13.875-5.938-2.645-4.231-2.98-7.57-2.563-12.5 5.506-10.801 15.692-12.52 26.625-8.75" fill="#123762"></path>
  <path d="M772 609h28v87h-28zm2 2v84h24v-84z" fill="#274369"></path>
  <path d="m575 488-5 3h18c-6.016 4.01-13.982 3.133-21 3.063l-2.637-.014q-3.18-.02-6.363-.049c2.446-2.446 4.755-3.341 7.938-4.687l3.214-1.387C572 487 572 487 575 488" fill="#274774"></path>
  <path d="M849 282c0 3.554-.911 5.017-2.625 8.105l-1.64 2.979-1.735 3.103-1.734 3.14A2042 2042 0 0 1 837 307l-2-2h2l1-5-4 4-2-1 2.195-2.562c5.133-6.015 10.159-12.034 14.805-18.438" fill="#157cc1"></path>
  <path d="M853 285c1.176 3.475.812 5.875.004 9.422l-.693 3.105-.749 3.223-.736 3.27q-.901 3.993-1.826 7.98l-4-1a71 71 0 0 1 2.629-10.082l.947-2.822.986-2.909.999-2.966q1.215-3.612 2.439-7.221" fill="#7eb854"></path>
  <path d="m782 406 1 3-13 13-1-3z" fill="#78aa4b"></path>
  <path d="M665 403c1 3 1 3 .004 5.48l-1.442 2.707-1.433 2.731L661 416h2v2c-2.375 1.688-2.375 1.688-5 3l-2-1z" fill="#17528c"></path>
  <path d="m861 614 2 2a680 680 0 0 1-3.875 4l-2.18 2.25C855 624 855 624 853 624c1.65-4.292 4.738-6.88 8-10" fill="#193b65"></path>
  <path d="M849 282c0 3.722-1.18 5.464-3 8.688l-1.687 3.011L843 296l-2-4z" fill="#2078bc"></path>
  <path d="M867 224h20l-2 3-3-1a245 245 0 0 0-7.687-.562l-2.127-.131q-2.593-.158-5.186-.307z" fill="#629c37"></path>
  <path d="M836 377c1 3 1 3-.215 5.918l-1.722 3.27-1.715 3.292L831 392h-2c1.366-3.542 2.91-6.926 4.625-10.312l1.352-2.676z" fill="#1571ad"></path>
  <path d="M854 276h1v10l-2-1c-.625-2.062-.625-2.062-1-4l-2 1c1.152-2.468 2.048-4.048 4-6" fill="#b7dcbb"></path>
  <path d="M848 310v6l-5-1c.313-1.937.313-1.937 1-4 3-1 3-1 4-1" fill="#77ac44"></path>
  <path d="M910 619c0 3 0 3-2.5 5.688L905 627l-2-1c4.75-5.875 4.75-5.875 7-7" fill="#21426d"></path>
  <path d="M854 331c2.252 2.688 3.882 4.646 5 8h-2l-1-4-4 2z" fill="#3185bc"></path>
  <path d="m575 488-6 4-4-2c6.625-3.125 6.625-3.125 10-2" fill="#1a3f6e"></path>
</svg>
